<svg width="102" height="200" viewBox="0 0 102 200" fill="none" xmlns="http://www.w3.org/2000/svg">
<path fill-rule="evenodd" clip-rule="evenodd" d="M19.4467 167.785C19.4467 165.244 21.5071 163.183 24.0488 163.183H74.2884C76.8301 163.183 78.8906 165.244 78.8906 167.785C78.8906 170.327 76.8301 172.387 74.2884 172.387H24.0488C21.5071 172.387 19.4467 170.327 19.4467 167.785ZM19.4466 181.592C19.4466 179.05 21.5071 176.989 24.0488 176.989H74.2884C76.8301 176.989 78.8905 179.05 78.8905 181.592C78.8905 184.133 76.8301 186.194 74.2884 186.194H24.0488C21.5071 186.194 19.4466 184.133 19.4466 181.592ZM35.0659 191C31.7736 191 29.5958 194.42 30.9881 197.403C31.7274 198.987 33.3175 200 35.0659 200H62.9341C64.6825 200 66.2726 198.987 67.0119 197.403C68.4042 194.42 66.2264 191 62.9341 191H35.0659Z" fill="white"/>
<path fill-rule="evenodd" clip-rule="evenodd" d="M18.8714 156.472C5.38465 139.981 -14.1487 99.4439 15.6116 69.2234C45.3719 39.0029 47.1871 10.4826 44.3747 0C51.0108 16.0159 63.7365 50.9249 61.6436 62.6435C61.7281 62.2834 62.1964 61.5826 62.8603 60.5889C65.5243 56.6018 71.3382 47.9002 68.1523 37.5839C76.1421 45.3819 89.8205 64.046 91.3546 68.8399C98.833 86.2895 114.192 129.075 80.6163 153.787C78.4203 155.403 76.3122 156.922 74.2883 158.347C73.7244 158.127 73.1107 158.006 72.4688 158.006H62.7368C63.3501 157.504 63.9704 156.965 64.5972 156.389C78.9646 143.171 73.1278 124.78 69.6258 116.609C68.9074 114.364 62.502 105.624 58.7605 101.972C60.2524 106.803 57.5298 110.878 56.2823 112.745C55.9714 113.21 55.7521 113.539 55.7125 113.707C56.6926 108.219 50.7333 91.872 47.6257 84.372C48.9428 89.2808 48.0927 102.637 34.1563 116.788C20.22 130.94 29.3672 149.923 35.6829 157.646C35.7684 157.765 35.8578 157.885 35.9512 158.006H23.0249C21.9901 158.006 21.0286 158.32 20.2309 158.859C19.829 157.991 19.3839 157.186 18.8714 156.472Z" fill="white"/>
</svg>
