<svg height="512pt" viewBox="0 -11 512 512" width="512pt" xmlns="http://www.w3.org/2000/svg"><path d="m490 245c0 135.308594-109.691406 245-245 245s-245-109.691406-245-245 109.691406-245 245-245 245 109.691406 245 245zm0 0" fill="#f9ce00"/><path d="m245 490c21.460938 0 42.273438-2.769531 62.109375-7.949219-1.5-3.210937-2.503906-6.851562-2.953125-11.484375l-4.164062-59.847656c-14.726563 0-106.902344 0-121.726563 0l-4.167969 59.847656c-.3125 3.25-.898437 6.015625-1.738281 8.484375 22.953125 7.113281 47.351563 10.949219 72.640625 10.949219zm0 0" fill="#b7dbf6"/><path d="m194.144531 447.25h89.871094c8.246094 0 15.476563 4.523438 19.304687 11.277344l-3.328124-47.808594c-14.726563 0-106.902344 0-121.726563 0l-3.316406 47.605469c3.859375-6.640625 11.035156-11.074219 19.195312-11.074219zm0 0" fill="#97cbef"/><path d="m491.992188 24.238281h-353.363282c-16.167968 7.800781-31.339844 17.335938-45.292968 28.347657l-69.511719 297.875c.226562.472656.4375.953124.667969 1.421874h487.507812v-307.636718c0-11.003906-9.003906-20.007813-20.007812-20.007813zm0 0" fill="#122894"/><path d="m12.65625 322.847656c3.34375 9.976563 7.289062 19.675782 11.835938 29.035156h46.925781v-226.023437zm0 0" fill="#012481"/><path d="m66.453125 412.746094h425.539063c11.003906 0 20.007812-9.003906 20.007812-20.007813v-40.855469h-487.507812c10.882812 22.414063 25.085937 42.910157 41.960937 60.863282zm0 0" fill="#e8f3fc"/><path d="m71.417969 392.738281v-40.851562h-46.925781c10.882812 22.410156 25.085937 42.90625 41.960937 60.859375h24.972656c-11.003906 0-20.007812-9.003906-20.007812-20.007813zm0 0" fill="#b7dbf6"/><path d="m483.050781 51.625h-361.9375c51.734375 30.433594 66.171875 77.78125 76.25 143.28125 8.511719 55.320312 44.859375 101.296875 88.386719 129.542969h197.300781c.863281 0 1.558594-.699219 1.558594-1.5625v-269.703125c.003906-.859375-.695313-1.558594-1.558594-1.558594zm0 0" fill="#e8f3fc"/><path d="m252.824219 382.316406c0 7.5625-6.132813 13.695313-13.695313 13.695313s-13.695312-6.132813-13.695312-13.695313 6.132812-13.695312 13.695312-13.695312 13.695313 6.132812 13.695313 13.695312zm0 0" fill="#b7dbf6"/><path d="m199.390625 194.90625c-10.078125-65.5-24.511719-112.847656-76.246094-143.28125h-28.582031c-57.546875 44.832031-94.5625 114.777344-94.5625 193.375 0 27.808594 4.640625 54.53125 13.179688 79.445312h274.601562c-43.53125-28.246093-79.875-74.21875-88.390625-129.539062zm0 0" fill="#406bcc"/><path d="m71.417969 72.148438c-44.125 44.304687-71.417969 105.382812-71.417969 172.851562 0 27.808594 4.640625 54.53125 13.179688 79.445312h58.238281zm0 0" fill="#284cb2"/><path d="m151.597656 234.417969c-7.65625-49.757813-36.644531-90.933594-76.226562-115.675781-10.148438-6.34375-21.765625-9.898438-33.6875-10.480469-26.320313 39.054687-41.683594 86.101562-41.683594 136.738281 0 27.808594 4.640625 54.53125 13.179688 79.445312h183c-23.019532-23.839843-39.15625-54.78125-44.582032-90.027343zm0 0" fill="#284cb2"/><path d="m71.417969 116.453125c-9.164063-4.914063-19.332031-7.6875-29.734375-8.195313-26.320313 39.058594-41.683594 86.105469-41.683594 136.742188 0 27.808594 4.640625 54.53125 13.179688 79.445312h58.238281zm0 0" fill="#1d3ba8"/><path d="m138.289062 324.445312h-91.746093c-5.574219 0-10.09375-4.519531-10.09375-10.09375v-91.914062c0-5.574219 4.519531-10.09375 10.09375-10.09375h91.746093c5.578126 0 10.097657 4.519531 10.097657 10.09375v91.914062c0 5.578126-4.519531 10.09375-10.097657 10.09375zm0 0" fill="#06daf7"/><path d="m69.96875 314.351562v-91.914062c0-5.574219 4.519531-10.09375 10.09375-10.09375h-33.519531c-5.574219 0-10.09375 4.519531-10.09375 10.09375v91.914062c0 5.578126 4.519531 10.097657 10.09375 10.097657h33.519531c-5.574219 0-10.09375-4.519531-10.09375-10.097657zm0 0" fill="#05b8e2"/><path d="m125.9375 298.65625c0 4.203125-3.40625 7.609375-7.609375 7.609375h-51.820313c-4.203124 0-7.609374-3.40625-7.609374-7.609375 0-4.199219 3.40625-7.605469 7.609374-7.605469h51.820313c4.203125 0 7.609375 3.40625 7.609375 7.605469zm0 0" fill="#55f3ff"/><path d="m125.9375 268.5625c0 4.203125-3.40625 7.609375-7.609375 7.609375h-51.820313c-4.203124 0-7.609374-3.40625-7.609374-7.609375 0-4.199219 3.40625-7.605469 7.609374-7.605469h51.820313c4.203125 0 7.609375 3.40625 7.609375 7.605469zm0 0" fill="#55f3ff"/><path d="m115.832031 238.132812c0 4.203126-3.40625 7.609376-7.605469 7.609376h-31.617187c-4.203125 0-7.605469-3.40625-7.605469-7.609376 0-4.203124 3.402344-7.609374 7.605469-7.609374h31.617187c4.199219 0 7.605469 3.40625 7.605469 7.609374zm0 0" fill="#05b8e2"/><path d="m299.386719 74.449219c0 4.203125-3.40625 7.609375-7.609375 7.609375h-18.460938c-4.203125 0-7.609375-3.40625-7.609375-7.609375s3.40625-7.609375 7.609375-7.609375h18.460938c4.203125 0 7.609375 3.40625 7.609375 7.609375zm0 0" fill="#c1d629"/><g fill="#b7dbf6"><path d="m349.902344 74.449219c0 4.203125-3.40625 7.609375-7.609375 7.609375h-18.460938c-4.203125 0-7.609375-3.40625-7.609375-7.609375s3.40625-7.609375 7.609375-7.609375h18.460938c4.203125 0 7.609375 3.40625 7.609375 7.609375zm0 0"/><path d="m400.417969 74.449219c0 4.203125-3.40625 7.609375-7.609375 7.609375h-18.460938c-4.203125 0-7.609375-3.40625-7.609375-7.609375s3.40625-7.609375 7.609375-7.609375h18.460938c4.203125 0 7.609375 3.40625 7.609375 7.609375zm0 0"/><path d="m450.933594 74.449219c0 4.203125-3.40625 7.609375-7.609375 7.609375h-18.460938c-4.203125 0-7.605469-3.40625-7.605469-7.609375s3.402344-7.609375 7.605469-7.609375h18.460938c4.203125 0 7.609375 3.40625 7.609375 7.609375zm0 0"/><path d="m152.941406 186.613281h143.664063v-25.792969h-143.664063c-2.515625 0-4.554687 2.042969-4.554687 4.558594v16.679688c0 2.515625 2.039062 4.554687 4.554687 4.554687zm0 0"/></g><path d="m191.386719 182.058594v-16.679688c0-2.515625 2.039062-4.554687 4.554687-4.554687h-43c-2.515625 0-4.554687 2.039062-4.554687 4.554687v16.679688c0 2.515625 2.039062 4.554687 4.554687 4.554687h43c-2.515625 0-4.554687-2.039062-4.554687-4.554687zm0 0" fill="#97cbef"/><path d="m293.476562 186.613281h28.59375c2.519532 0 4.558594-2.039062 4.558594-4.554687v-16.679688c0-2.515625-2.039062-4.554687-4.558594-4.554687h-28.59375zm0 0" fill="#06daf7"/><path d="m4.425781 198.511719c59.523438-55.9375 108.28125-32.289063 130.6875-14.933594-13.84375-26.875-34.660156-49.15625-59.742187-64.835937-10.148438-6.34375-21.765625-9.898438-33.6875-10.480469-18.054688 26.792969-30.941406 57.351562-37.257813 90.25zm0 0" fill="#1d3ba8"/><path d="m71.417969 116.453125c-9.164063-4.914063-19.332031-7.6875-29.734375-8.195313-18.054688 26.796876-30.941406 57.355469-37.257813 90.253907 24.519531-23.042969 47.214844-32.574219 66.992188-34.609375zm0 0" fill="#122894"/><path d="m283.378906 324.445312h-91.746094c-5.574218 0-10.09375-4.519531-10.09375-10.09375v-91.914062c0-5.574219 4.519532-10.09375 10.09375-10.09375h91.746094c5.574219 0 10.097656 4.519531 10.097656 10.09375v91.914062c0 5.578126-4.523437 10.09375-10.097656 10.09375zm0 0" fill="#06daf7"/><path d="m215.058594 314.351562v-91.914062c0-5.574219 4.519531-10.09375 10.09375-10.09375h-33.519532c-5.574218 0-10.09375 4.519531-10.09375 10.09375v91.914062c0 5.578126 4.519532 10.097657 10.09375 10.097657h33.519532c-5.574219 0-10.09375-4.519531-10.09375-10.097657zm0 0" fill="#05b8e2"/><path d="m271.027344 298.65625c0 4.203125-3.40625 7.609375-7.609375 7.609375h-51.820313c-4.203125 0-7.609375-3.40625-7.609375-7.609375 0-4.199219 3.40625-7.605469 7.609375-7.605469h51.820313c4.203125 0 7.609375 3.40625 7.609375 7.605469zm0 0" fill="#55f3ff"/><path d="m271.027344 268.5625c0 4.203125-3.40625 7.609375-7.609375 7.609375h-51.820313c-4.203125 0-7.609375-3.40625-7.609375-7.609375 0-4.199219 3.40625-7.605469 7.609375-7.605469h51.820313c4.203125 0 7.609375 3.40625 7.609375 7.605469zm0 0" fill="#55f3ff"/><path d="m260.921875 238.132812c0 4.203126-3.40625 7.609376-7.609375 7.609376h-31.613281c-4.203125 0-7.609375-3.40625-7.609375-7.609376 0-4.203124 3.40625-7.609374 7.609375-7.609374h31.613281c4.203125 0 7.609375 3.40625 7.609375 7.609374zm0 0" fill="#05b8e2"/><path d="m428.46875 324.445312h-91.746094c-5.574218 0-10.09375-4.519531-10.09375-10.09375v-91.914062c0-5.574219 4.519532-10.09375 10.09375-10.09375h91.746094c5.574219 0 10.09375 4.519531 10.09375 10.09375v91.914062c0 5.578126-4.519531 10.09375-10.09375 10.09375zm0 0" fill="#06daf7"/><path d="m360.148438 314.351562v-91.914062c0-5.574219 4.519531-10.09375 10.09375-10.09375h-33.519532c-5.574218 0-10.09375 4.519531-10.09375 10.09375v91.914062c0 5.578126 4.519532 10.097657 10.09375 10.097657h33.519532c-5.578126 0-10.09375-4.519531-10.09375-10.097657zm0 0" fill="#05b8e2"/><path d="m416.113281 298.65625c0 4.203125-3.402343 7.609375-7.605469 7.609375h-51.824218c-4.199219 0-7.605469-3.40625-7.605469-7.609375 0-4.199219 3.40625-7.605469 7.605469-7.605469h51.824218c4.203126 0 7.605469 3.40625 7.605469 7.605469zm0 0" fill="#55f3ff"/><path d="m416.113281 268.5625c0 4.203125-3.402343 7.609375-7.605469 7.609375h-51.824218c-4.199219 0-7.605469-3.40625-7.605469-7.609375 0-4.199219 3.40625-7.605469 7.605469-7.605469h51.824218c4.203126 0 7.605469 3.40625 7.605469 7.605469zm0 0" fill="#55f3ff"/><path d="m406.011719 238.132812c0 4.203126-3.40625 7.609376-7.609375 7.609376h-31.613282c-4.203124 0-7.609374-3.40625-7.609374-7.609376 0-4.203124 3.40625-7.609374 7.609374-7.609374h31.613282c4.203125 0 7.609375 3.40625 7.609375 7.609374zm0 0" fill="#05b8e2"/></svg>