<svg height="512pt" viewBox="0 -5 512 511" width="512pt" xmlns="http://www.w3.org/2000/svg"><path d="m245 11.5c-135.308594 0-245 109.691406-245 245 0 32.769531 6.449219 64.03125 18.125 92.601562l229.875 152.359376c133.925781-1.609376 242-110.65625 242-244.960938 0-135.308594-109.691406-245-245-245zm0 0" fill="#c1d629"/><path d="m480.996094 100.488281h-111.890625c3.394531 5.300781 5.371093 11.601563 5.371093 18.363281v276.257813c0 6.761719-1.976562 13.0625-5.371093 18.367187h111.890625c17.121094 0 31.003906-13.882812 31.003906-31.007812v-250.976562c0-17.125-13.882812-31.003907-31.003906-31.003907zm0 0" fill="#e8f3fc"/><path d="m414.128906 390.574219v-268.171875c-11.234375-.917969-15.164062-15.417969-5.964844-21.914063h-39.058593c3.394531 5.300781 5.371093 11.601563 5.371093 18.363281v276.257813c0 6.761719-1.976562 13.0625-5.371093 18.367187h40.726562c-11.066406-5.40625-7.84375-21.90625 4.296875-22.902343zm0 0" fill="#b7dbf6"/><path d="m479.433594 120.238281h-104.957032v112.507813c.558594-.246094 1.113282-.523438 1.648438-.84375l.238281-.144532c7.78125-4.648437 17.859375-1.171874 21.148438 7.273438 4.4375 11.390625 12.222656 25.660156 25.761719 38.605469 8.761718-4.957031 16.042968-10.683594 22.003906-16.507813 4.3125-4.222656 11.257812-4.222656 15.574218 0 7.734376 7.5625 17.667969 14.96875 30.238282 20.71875v-149.949218c0-6.4375-5.21875-11.660157-11.65625-11.660157zm0 0" fill="#55f3ff"/><path d="m406.132812 131.492188c0-3.972657.753907-7.761719 2.113282-11.253907h-33.769532v112.507813c.5625-.246094 1.113282-.523438 1.648438-.84375l.238281-.144532c7.785157-4.648437 17.863281-1.171874 21.152344 7.273438 2.0625 5.296875 4.863281 11.222656 8.617187 17.339844zm0 0" fill="#05b8e2"/><path d="m491.089844 276.824219c-12.570313-5.75-22.503906-13.15625-30.238282-20.71875-4.316406-4.222657-11.257812-4.222657-15.574218 0-6.351563 6.210937-14.1875 12.320312-23.746094 17.496093 8.6875 8.542969 19.765625 16.578126 33.890625 22.960938 19.898437 8.996094 30.304687 17.183594 35.667969 22.8125zm0 0" fill="#82b218"/><path d="m449.015625 284.609375c0-11.320313 9.175781-20.492187 20.492187-20.492187.195313 0 .386719.023437.585938.027343-3.378906-2.613281-6.457031-5.316406-9.242188-8.042969-4.316406-4.21875-11.257812-4.21875-15.574218 0-6.351563 6.214844-14.1875 12.324219-23.746094 17.496094 7.921875 7.792969 17.839844 15.15625 30.234375 21.234375-1.738281-3.011719-2.75-6.496093-2.75-10.222656zm0 0" fill="#79a00d"/><path d="m451.734375 189.886719c0 12.59375-10.210937 22.800781-22.800781 22.800781-12.59375 0-22.800782-10.207031-22.800782-22.800781 0-12.589844 10.207032-22.800781 22.800782-22.800781 12.589844 0 22.800781 10.210937 22.800781 22.800781zm0 0" fill="#fce275"/><path d="m437.09375 196.367188c-8.085938 0-14.640625-6.554688-14.640625-14.640626 0-6.847656 4.707031-12.578124 11.058594-14.179687-1.480469-.300781-3.011719-.460937-4.578125-.460937-12.59375 0-22.800782 10.210937-22.800782 22.800781 0 12.59375 10.207032 22.800781 22.800782 22.800781 12.589844 0 22.800781-10.207031 22.800781-22.800781 0-1.566407-.160156-3.097657-.460937-4.578125-1.601563 6.351562-7.332032 11.058594-14.179688 11.058594zm0 0" fill="#f9ce00"/><path d="m455.261719 293.976562c-34.722657-15.699218-50.589844-41.585937-57.746094-59.96875-3.289063-8.449218-13.367187-11.921874-21.152344-7.273437l-.238281.144531c-.535156.316406-1.085938.597656-1.648438.839844v116.839844c56.8125-37.429688 102.761719-9.730469 116.613282.652344v-27.851563c-4.871094-5.488281-15.027344-13.980469-35.828125-23.382813zm0 0" fill="#9dc422"/><path d="m406.132812 251.363281c-3.757812-6.125-6.554687-12.050781-8.617187-17.355469-3.289063-8.445312-13.367187-11.917968-21.152344-7.273437l-.238281.144531c-.535156.320313-1.085938.597656-1.648438.84375v116.835938c11.011719-7.253906 21.613282-12.054688 31.65625-15.015625zm0 0" fill="#82b218"/><path d="m374.476562 350.800781v42.046875h106.304688c5.695312 0 10.308594-4.613281 10.308594-10.308594v-32.390624c-13.851563 10.378906-59.800782 38.078124-116.613282.652343zm0 0" fill="#5488e2"/><path d="m406.132812 382.46875v-16.652344c-10.042968-2.960937-20.644531-7.761718-31.65625-15.015625v42.046875h33.441407c-1.152344-3.246094-1.785157-6.738281-1.785157-10.378906zm0 0" fill="#406bcc"/><path d="m374.476562 342.503906v8.296875c56.8125 37.425781 102.761719 9.726563 116.613282-.652343v-6.992188c-13.851563-10.378906-59.800782-38.082031-116.613282-.652344zm0 0" fill="#406bcc"/><path d="m406.132812 327.488281c-10.042968 2.960938-20.644531 7.761719-31.65625 15.015625v8.296875c11.011719 7.253907 21.613282 12.054688 31.65625 15.015625zm0 0" fill="#1d3ba8"/><path d="m280.25 458.671875v-415.34375c0-17.691406-14.472656-32.164063-32.164062-32.164063h-188.066407c-17.691406 0-32.164062 14.472657-32.164062 32.164063v326.703125c30.117187 57.484375 82.382812 101.53125 145.472656 120.804688h74.761719c17.6875 0 32.160156-14.472657 32.160156-32.164063zm0 0" fill="#406bcc"/><path d="m87.359375 43.328125c0-17.691406 14.476563-32.164063 32.164063-32.164063h-59.503907c-17.691406 0-32.164062 14.472657-32.164062 32.164063v326.703125c14.878906 28.402344 35.175781 53.519531 59.503906 73.992188zm0 0" fill="#284cb2"/><path d="m248.085938.5h-188.066407c-23.652343 0-42.828125 19.175781-42.828125 42.828125v303.492187c5.796875 14.609376 12.957032 28.53125 21.328125 41.605469v-345.097656c0-11.875 9.625-21.5 21.5-21.5h34.824219c1.03125 0 1.867188.835937 1.867188 1.867187 0 8.628907 7.058593 15.6875 15.6875 15.6875h82.105468c8.628906 0 15.6875-7.058593 15.6875-15.6875 0-1.03125.835938-1.867187 1.867188-1.867187h36.027344c11.875 0 21.503906 9.625 21.503906 21.5v415.347656c0 11.871094-9.628906 21.5-21.5 21.5h-103.195313c30.566407 13.699219 64.445313 21.324219 100.105469 21.324219 1.824219 0 3.644531-.027344 5.460938-.070312 22.515624-1.234376 40.453124-19.9375 40.453124-42.757813v-415.34375c0-23.652344-19.175781-42.828125-42.828124-42.828125zm0 0" fill="#122894"/><path d="m87.128906 11.164062c0-4.898437 3.097656-9.058593 7.4375-10.664062h-34.546875c-23.652343 0-42.828125 19.175781-42.828125 42.828125v303.492187c5.796875 14.609376 12.957032 28.53125 21.328125 41.605469v-345.097656c0-11.875 9.625-21.5 21.5-21.5h34.542969c-4.335938-1.605469-7.433594-5.769531-7.433594-10.664063zm0 0" fill="#012481"/><path d="m342.269531 429.238281h-247.65625c-18.847656 0-34.128906-15.28125-34.128906-34.128906v-276.257813c0-18.847656 15.28125-34.128906 34.128906-34.128906h247.65625c18.847657 0 34.128907 15.28125 34.128907 34.128906v276.257813c0 18.847656-15.28125 34.128906-34.128907 34.128906zm0 0" fill="#e8f3fc"/><path d="m342.269531 429.238281h-247.65625c-18.847656 0-34.128906-15.28125-34.128906-34.128906v-276.257813c0-18.847656 15.28125-34.128906 34.128906-34.128906h247.65625c18.847657 0 34.128907 15.28125 34.128907 34.128906v276.257813c0 18.847656-15.28125 34.128906-34.128907 34.128906zm0 0" fill="#e8f3fc"/><path d="m127.363281 417.710938c0-6.574219 5.277344-11.910157 11.824219-12.019532v-298.4375c-6.3125-.113281-11.398438-5.257812-11.398438-11.597656 0-5.054688 3.238282-9.339844 7.746094-10.933594h-40.921875c-18.847656 0-34.128906 15.28125-34.128906 34.128906v276.257813c0 18.851563 15.28125 34.128906 34.128906 34.128906h41.347657c-4.972657-1.480469-8.597657-6.078125-8.597657-11.527343zm0 0" fill="#b7dbf6"/><path d="m122.9375 303.230469c38.25-17.289063 55.714844-45.816407 63.582031-66.050781 3.664063-9.421876 14.910157-13.28125 23.515625-7.976563l.082032.054687c5.117187 3.152344 11.5625 3.199219 16.722656.117188l.261718-.15625c8.566407-5.117188 19.660157-1.292969 23.28125 8.003906 4.878907 12.539063 13.449219 28.246094 28.351563 42.496094 9.648437-5.457031 17.664063-11.757812 24.222656-18.175781 4.746094-4.644531 12.390625-4.644531 17.140625 0 8.515625 8.328125 19.449219 16.480469 33.285156 22.808593v-165.050781c0-7.089843-5.746093-12.832031-12.832031-12.832031h-244.214843c-7.089844 0-12.835938 5.746094-12.835938 12.832031v209.675781c5.363281-6.042968 16.539062-15.394531 39.4375-25.746093zm0 0" fill="#f4b500"/><path d="m132.957031 118.851562c0-4.371093.832031-8.542968 2.328125-12.382812h-38.949218c-7.089844 0-12.835938 5.746094-12.835938 12.832031v209.675781c5.363281-6.042968 16.539062-15.394531 39.4375-25.746093 3.515625-1.585938 6.847656-3.273438 10.019531-5.035157zm0 0" fill="#f29b00"/><path d="m310.0625 183.128906c0 13.863282-11.238281 25.097656-25.097656 25.097656-13.863282 0-25.097656-11.234374-25.097656-25.097656 0-13.859375 11.234374-25.097656 25.097656-25.097656 13.859375 0 25.097656 11.238281 25.097656 25.097656zm0 0" fill="#fce275"/><path d="m294.925781 188.304688c-8.359375 0-15.136719-6.777344-15.136719-15.136719 0-6.847657 4.550782-12.628907 10.796876-14.496094-1.808594-.414063-3.6875-.640625-5.621094-.640625-13.859375 0-25.097656 11.238281-25.097656 25.097656 0 13.863282 11.238281 25.097656 25.097656 25.097656s25.097656-11.234374 25.097656-25.097656c0-1.933594-.226562-3.8125-.636719-5.617187-1.871093 6.242187-7.652343 10.792969-14.5 10.792969zm0 0" fill="#f9ce00"/><path d="m353.382812 278.824219c-13.835937-6.328125-24.769531-14.480469-33.285156-22.808594-4.75-4.644531-12.394531-4.644531-17.144531 0-6.992187 6.839844-15.613281 13.5625-26.136719 19.257813 9.566406 9.40625 21.753906 18.246093 37.304688 25.277343 21.90625 9.902344 33.355468 18.914063 39.261718 25.109375zm0 0" fill="#a54f2d"/><path d="m313.0625 291.085938c0-11.964844 9.699219-21.660157 21.660156-21.660157.675782 0 1.339844.035157 2 .09375-6.355468-4.253906-11.867187-8.851562-16.625-13.503906-4.75-4.648437-12.394531-4.648437-17.140625 0-6.992187 6.839844-15.617187 13.5625-26.140625 19.257813 9.566406 9.402343 21.753906 18.246093 37.304688 25.277343.492187.222657.972656.441407 1.457031.664063-1.605469-3.023438-2.515625-6.46875-2.515625-10.128906zm0 0" fill="#914429"/><path d="m353.382812 323.445312c-5.363281-6.042968-16.539062-15.394531-39.4375-25.746093-38.21875-17.273438-55.683593-45.773438-63.5625-66.003907-3.621093-9.300781-14.714843-13.125-23.28125-8.007812l-.261718.160156c-5.160156 3.078125-11.605469 3.035156-16.71875-.121094l-.085938-.050781c-8.601562-5.308593-19.847656-1.445312-23.511718 7.976563-7.871094 20.234375-25.332032 48.757812-63.582032 66.050781-22.898437 10.351563-34.074218 19.699219-39.4375 25.742187v30.65625c15.777344-11.824218 69.390625-44.078124 134.941406 3.84375 65.546876-47.917968 119.160157-15.671874 134.941407-3.847656v-30.652344zm0 0" fill="#b2603b"/><path d="m177.445312 305.460938c22.683594-19.046876 33.042969-50.46875 37.710938-72.757813.546875-2.613281 1.378906-4.839844 2.402344-6.613281-2.589844-.164063-5.148438-.949219-7.441406-2.363282l-.082032-.050781c-8.605468-5.308593-19.851562-1.445312-23.515625 7.976563-7.867187 20.234375-25.332031 48.757812-63.582031 66.050781-22.898438 10.351563-34.074219 19.699219-39.4375 25.742187v30.65625c10.203125-7.648437 36.238281-23.832031 71.085938-21.355468 3.363281-6.664063 9.984374-16.476563 22.859374-27.285156zm0 0" fill="#a54f2d"/><path d="m218.441406 355.683594c-65.550781-47.921875-119.164062-15.667969-134.941406-3.84375v43.347656c0 6.265625 5.082031 11.347656 11.347656 11.347656h247.191406c6.265626 0 11.34375-5.082031 11.34375-11.347656v-35.65625c-15.777343 11.824219-69.390624 44.074219-134.941406-3.847656zm0 0" fill="#55f3ff"/><path d="m132.957031 395.109375v-63.84375c-23.898437 3.445313-41.496093 14.605469-49.457031 20.574219v43.347656c0 6.265625 5.082031 11.347656 11.347656 11.347656h40.078125c-1.273437-3.574218-1.96875-7.417968-1.96875-11.425781zm0 0" fill="#05b8e2"/><path d="m353.382812 351.839844c-15.777343-11.828125-69.390624-44.074219-134.941406 3.84375 65.546875 47.921875 119.160156 15.671875 134.941406 3.847656zm0 0" fill="#05b8e2"/><path d="m280.25 355.683594c0-11.644532 7.519531-21.53125 17.96875-25.078125-22.472656-1.953125-49.882812 3.222656-79.777344 25.078125 29.894532 21.855468 57.300782 27.03125 79.773438 25.078125-10.445313-3.546875-17.964844-13.433594-17.964844-25.078125zm0 0" fill="#07a3d3"/></svg>