<svg height="512pt" viewBox="0 0 512 512.0005" width="512pt" xmlns="http://www.w3.org/2000/svg"><path d="m245 22c-33.589844 0-65.597656 6.765625-94.742188 19l-90.714843 386.09375c29.835937 34.535156 69.164062 60.632812 113.921875 74.28125l134.097656 2.550781c105-27.652343 182.4375-123.242187 182.4375-236.925781 0-135.308594-109.691406-245-245-245zm0 0" fill="#ef4a8a"/><path d="m245 512c22.875 0 45.011719-3.144531 66.015625-9.007812-3.519531-4.730469-5.746094-9.671876-6.480469-17.292969l-4.160156-59.742188c-14.699219 0-106.710938 0-121.507812 0l-4.160157 59.742188c-.597656 6.199219-2.1875 10.625-4.648437 14.609375 23.621094 7.582031 48.800781 11.691406 74.941406 11.691406zm0 0" fill="#b7dbf6"/><path d="m202.011719 460.925781h75.007812c11.070313 0 20.910157 5.570313 26.773438 14.128907l-3.417969-49.097657c-14.699219 0-106.710938 0-121.507812 0l-3.394532 48.761719c5.890625-8.367188 15.613282-13.792969 26.539063-13.792969zm0 0" fill="#97cbef"/><path d="m492.027344 40.171875h-339.746094c-18.140625 7.421875-35.191406 16.957031-50.847656 28.296875l-90.882813 269.820312c3.015625 9.925782 6.636719 19.589844 10.835938 28.941407h490.613281v-307.085938c0-10.984375-8.988281-19.972656-19.972656-19.972656zm0 0" fill="#122894"/><path d="m84.730469 118.0625-74.179688 220.226562c3.015625 9.925782 6.636719 19.589844 10.835938 28.941407h63.34375zm0 0" fill="#012481"/><path d="m60.332031 427.984375h431.695313c10.984375 0 19.972656-8.988281 19.972656-19.972656v-40.78125h-490.613281c9.96875 22.203125 23.148437 42.648437 38.945312 60.753906zm0 0" fill="#e8f3fc"/><path d="m84.730469 408.011719v-40.78125h-63.34375c9.96875 22.203125 23.148437 42.648437 38.945312 60.753906h44.371094c-10.984375 0-19.972656-8.988281-19.972656-19.972656zm0 0" fill="#b7dbf6"/><path d="m483.105469 67.511719h-380.351563c-62.203125 44.429687-102.753906 117.21875-102.753906 199.488281 0 25.367188 3.871094 49.832031 11.027344 72.84375h472.078125c.859375 0 1.554687-.699219 1.554687-1.558594v-269.214844c0-.859374-.695312-1.558593-1.554687-1.558593zm0 0" fill="#e8f3fc"/><path d="m84.730469 81.710938c-51.894531 44.917968-84.730469 111.265624-84.730469 185.289062 0 25.367188 3.871094 49.832031 11.027344 72.84375h73.703125zm0 0" fill="#b7dbf6"/><path d="m253.292969 397.605469c0 7.550781-6.121094 13.671875-13.671875 13.671875-7.546875 0-13.667969-6.121094-13.667969-13.671875 0-7.546875 6.121094-13.667969 13.667969-13.667969 7.550781 0 13.671875 6.121094 13.671875 13.667969zm0 0" fill="#b7dbf6"/><path d="m.167969 258.351562h484.492187v-105.757812h-456.34375c-16.804687 31.757812-26.824218 67.652344-28.148437 105.757812zm0 0" fill="#b7dbf6"/><path d="m84.730469 152.59375h-56.414063c-16.804687 31.757812-26.824218 67.652344-28.148437 105.757812h84.5625zm0 0" fill="#97cbef"/><path d="m317.121094 0h-53.457032v339.84375h66.371094v-326.976562c0-7.105469-5.78125-12.867188-12.914062-12.867188zm0 0" fill="#05b8e2"/><path d="m296.847656 242.457031c-18.328125 0-33.1875-11.097656-33.1875-24.789062v122.175781h66.375v-122.175781c0 13.691406-14.859375 24.789062-33.1875 24.789062zm0 0" fill="#07a3d3"/><path d="m265.660156 0h-20.683594c-7.132812 0-12.914062 5.761719-12.914062 12.867188v326.976562h33.597656zm0 0" fill="#06daf7"/><path d="m248.859375 240.507812c-9.277344 0-16.796875-7.519531-16.796875-16.796874v116.132812h33.597656v-116.132812c0 9.277343-7.519531 16.796874-16.800781 16.796874zm0 0" fill="#05b8e2"/><path d="m182.410156 37.054688c-5.417968 1.941406-11.265625 3.03125-17.390625 3.03125-6.121093 0-11.96875-1.089844-17.386719-3.03125l-16.210937 43.777343v23.140625h67.199219v-23.140625zm0 0" fill="#fcecac"/><path d="m165.019531 89.3125c-8.519531-8.523438-6.054687-30.058594-1.535156-49.261719-5.5625-.164062-10.886719-1.21875-15.851563-2.996093l-16.210937 43.777343v23.140625h33.566406c4.195313-4.257812 5.457031-9.234375.03125-14.660156zm0 0" fill="#fce275"/><path d="m165.023438 41.09375c6.246093 0 12.207031-1.128906 17.71875-3.140625l-12.785157-34.527344c-1.691406-4.566406-8.179687-4.566406-9.871093 0l-12.785157 34.527344c5.511719 2.011719 11.476563 3.140625 17.722657 3.140625zm0 0" fill="#284cb2"/><path d="m169.957031 3.425781c-1.691406-4.566406-8.179687-4.566406-9.871093 0l-12.785157 34.527344c4.988281 1.820313 10.347657 2.910156 15.949219 3.101563 2.941406-12.75 6.839844-24.589844 9.128906-31.09375zm0 0" fill="#1d3ba8"/><g fill="#55f3ff"><path d="m242.773438 47.835938h-10.714844c-4.191406 0-7.59375-3.386719-7.59375-7.566407 0-4.179687 3.402344-7.566406 7.59375-7.566406h10.710937c4.195313 0 7.597657 3.386719 7.597657 7.566406 0 4.179688-3.402344 7.566407-7.59375 7.566407zm0 0"/><path d="m242.773438 90.835938h-10.714844c-4.191406 0-7.59375-3.386719-7.59375-7.566407 0-4.179687 3.402344-7.566406 7.59375-7.566406h10.710937c4.195313 0 7.597657 3.386719 7.597657 7.566406 0 4.179688-3.402344 7.566407-7.59375 7.566407zm0 0"/><path d="m269.097656 133.835938h-37.039062c-4.191406 0-7.59375-3.386719-7.59375-7.5625 0-4.179688 3.402344-7.566407 7.59375-7.566407h37.039062c4.195313 0 7.59375 3.386719 7.59375 7.566407 0 4.175781-3.398437 7.5625-7.59375 7.5625zm0 0"/><path d="m242.773438 176.839844h-10.714844c-4.191406 0-7.59375-3.386719-7.59375-7.566406 0-4.179688 3.402344-7.566407 7.59375-7.566407h10.710937c4.195313 0 7.597657 3.386719 7.597657 7.566407 0 4.179687-3.402344 7.566406-7.59375 7.566406zm0 0"/><path d="m242.773438 219.839844h-10.714844c-4.191406 0-7.59375-3.386719-7.59375-7.5625 0-4.179688 3.402344-7.566406 7.59375-7.566406h10.710937c4.195313 0 7.597657 3.386718 7.597657 7.566406 0 4.175781-3.402344 7.5625-7.59375 7.5625zm0 0"/></g><path d="m269.097656 262.84375h-37.039062c-4.191406 0-7.59375-3.386719-7.59375-7.566406 0-4.179688 3.402344-7.566406 7.59375-7.566406h37.039062c4.195313 0 7.59375 3.386718 7.59375 7.566406 0 4.179687-3.398437 7.566406-7.59375 7.566406zm0 0" fill="#06daf7"/><path d="m242.773438 305.84375h-10.714844c-4.191406 0-7.59375-3.386719-7.59375-7.566406 0-4.179688 3.402344-7.566406 7.59375-7.566406h10.710937c4.195313 0 7.597657 3.386718 7.597657 7.566406 0 4.179687-3.402344 7.566406-7.59375 7.566406zm0 0" fill="#06daf7"/><path d="m181.820312 97.570312c-5.449218 0-10.28125-2.59375-13.347656-6.601562-.816406-1.066406-2.109375-1.65625-3.453125-1.65625v250.53125h33.601563v-259.007812c0 9.242187-7.523438 16.734374-16.800782 16.734374zm0 0" fill="#f9ce00"/><path d="m165.019531 89.3125c-1.339843 0-2.632812.589844-3.449219 1.65625-3.066406 4.007812-7.898437 6.601562-13.347656 6.601562-9.28125 0-16.800781-7.492187-16.800781-16.738281v259.011719h33.597656zm0 0" fill="#f4b500"/><path d="m182.769531 240.964844c-6.707031.367187-12.601562-3.203125-15.613281-8.605469-.429688-.773437-1.25-1.242187-2.132812-1.242187v108.726562h33.597656v-116.085938c0 8.988282-6.878906 16.714844-15.851563 17.207032zm0 0" fill="#f4b500"/><path d="m162.890625 232.359375c-3.011719 5.402344-8.910156 8.972656-15.613281 8.605469-8.976563-.492188-15.855469-8.21875-15.855469-17.207032v116.082032h33.601563v-108.722656c-.886719 0-1.703126.46875-2.132813 1.242187zm0 0" fill="#f29b00"/></svg>